<?xml version="1.0" encoding="utf-8"?>
<!-- Generator: Adobe Illustrator 22.0.0, SVG Export Plug-In . SVG Version: 6.00 Build 0)  -->
<svg version="1.1" id="Camada_1" xmlns="http://www.w3.org/2000/svg" xmlns:xlink="http://www.w3.org/1999/xlink" x="0px" y="0px"
	 viewBox="0 0 533.7 215.3" style="enable-background:new 0 0 533.7 215.3;" xml:space="preserve">
<style type="text/css">
	.st0{fill:none;stroke:#F90606;stroke-width:4;stroke-linecap:round;stroke-linejoin:round;}
</style>
<g>
	<g>
		<path class="st0" d="M2.5,10.7l14.3-5.2C17,5.6,8.5,16,8.7,16.1c0.2,0.2,14.3-5.3,14.4-5.2c0.2,0.3-14.6,11.4-14.6,11.5
			C9,23,48,8,48.2,8.3C48.5,8.7,5.5,30.7,5.8,31.1C6.4,32,73.5,6.3,73.8,6.8C74.6,7.8,6.5,37,7.2,37.7C7.9,38.8,85.8,8.6,86.4,9.4
			c0.3,0.5-70.5,32.2-69.8,33.2c0.8,1,96-35.8,97-34.6c0.5,0.9-102.3,43.5-101.7,44.3c0.9,1.2,114.6-43.1,115.8-41.4
			C128.7,12.1,13,57.3,13.6,58.3C15,60.1,149.7,7.1,151.1,9.2C152.3,10.8,11,64.4,11.9,65.7c1.5,2,158.3-58.9,159.6-57
			c1.1,1.5-156.7,62.7-155.8,63.9c1.5,2,174.8-65.2,176.4-63C193.5,11.5,7.3,80.8,8.4,82.2c1.7,2.3,210.5-77.7,211.9-75.8
			C221.5,8.2,4.1,89,5.5,90.7C6.8,92.7,238.1,3.7,240.4,6.8c2.2,3-213.3,81.1-211.9,83.1c1.4,1.8,221.4-81.5,222.8-79.5
			s-203,78-201.4,80.2c1.2,1.8,235.2-87.3,237.1-84.7c1.5,2-213.4,81.4-212.3,83C76,90.6,296.2,6.4,298,8.9
			c1.4,1.8-212.3,81.3-210.8,83.4C89,94.9,320.4,6.8,321.7,8.5c2.2,2.9-207.4,77.9-205.9,80.1c1.7,2.3,216.9-81.4,219.1-78.3
			c1.5,2-201,76.6-199.6,78.4C137,91,355.3,7.2,357,9.5c1.4,1.8-208.7,79.4-207.4,81.1c1.2,1.8,225.1-84.1,227.1-81.1
			C377.7,11,176.9,86.9,178,88.3c1.5,2.2,223.6-82.8,225.1-80.5c2.2,3-216.5,82-214.9,84.1C190,94.4,426.8,3.5,428.6,5.9
			c1.7,2.4-220.3,83-218.3,85.7c2.2,3,236.3-88.5,238.6-85.2c1.8,2.5-207.6,80.6-206.5,82.2c1.2,1.7,216.9-80.1,218.5-78
			c1.8,2.6-200.2,77-199.1,78.6C263.1,91,486.2,6.6,487.6,8.4c1.1,1.5-210,78.4-208.2,81c2.2,3,219.3-82.2,221.6-79.1
			c2,2.8-200.7,76.3-199.3,78.2c1.7,2.3,217.9-81.7,220-78.7c1.1,1.5-197,76.2-195.9,77.7c1.4,1.8,201.3-74.6,202.8-72.5
			c1.2,1.7-188.1,71.7-186.8,73.2c1.5,2.2,190.5-70.4,191.9-68.5c1.4,1.8-171.5,67-170.2,68.6c1.8,2.5,155.2-57.9,156.6-55.9
			c1.1,1.4-143.4,56.6-142.4,57.7C379,92,522.2,36.2,523.4,37.9c1.2,1.7-121.2,50.3-120.5,51.5C404,90.8,529.2,42.9,530,44.1
			c0.8,1-105.4,42.8-104.3,44.2c0.8,1,98.9-36.3,99.4-35.6c0.8,1-81.1,36.3-80.5,37.1c0.8,1.1,75.4-28.1,76.1-27.2
			c0.6,0.8-53.5,26.5-52.9,27.3c0.3,0.5,62.5-23.5,63.1-22.6c0.5,0.5-38,19.7-37.6,20.2c0.5,0.6,25.2-9.7,25.7-9.2
			c0.3,0.3-20.7,13.8-20.6,14c0.2,0.3,29.7-11.1,30-10.7c0.2,0.1-9.1,11.3-9.1,11.4c0,0,13.2-4.8,13.4-4.7"/>
	</g>
</g>
</svg>
