<?xml version="1.0" encoding="utf-8"?>
<!-- Generator: Adobe Illustrator 22.0.0, SVG Export Plug-In . SVG Version: 6.00 Build 0)  -->
<svg version="1.1" id="Camada_1" xmlns="http://www.w3.org/2000/svg" xmlns:xlink="http://www.w3.org/1999/xlink" x="0px" y="0px"
	 viewBox="0 0 989.7 215.3" style="enable-background:new 0 0 989.7 215.3;" xml:space="preserve">
<style type="text/css">
	.st0{fill:none;stroke:#74D825;stroke-width:4;stroke-linecap:round;stroke-linejoin:round;}
</style>
<g>
	<g>
		<path class="st0" d="M2.5,10.7l26.4-5.2C29.3,5.6,13.6,16,14,16.1c0.4,0.2,26.4-5.3,26.6-5.2c0.4,0.3-27,11.4-27,11.5
			C14.5,23,86.6,8,86.9,8.3C87.5,8.7,8,30.7,8.6,31.1C9.7,32,133.7,6.3,134.2,6.8C135.7,7.8,9.9,37,11.2,37.7
			c1.3,1.1,145.2-29.1,146.3-28.3c0.6,0.5-130.3,32.2-129,33.2C30,43.6,205.9,6.8,207.8,8c0.9,0.9-189,43.5-187.9,44.3
			c1.7,1.2,211.7-43.1,214-41.4C235.7,12.1,21.9,57.3,23,58.3c2.6,1.8,251.5-51.2,254.1-49.1c2.2,1.6-258.9,55.2-257.2,56.5
			c2.8,2,292.5-58.9,294.9-57c2,1.5-289.5,62.7-287.9,63.9c2.8,2,323-65.2,325.9-63c2.6,1.9-341.5,71.2-339.4,72.6
			c3.1,2.3,388.9-77.7,391.5-75.8C407.1,8.2,5.5,89,8,90.7c2.4,2,429.8-87,434-83.9c4.1,3-394.1,81.1-391.5,83.1
			c2.6,1.8,409.1-81.5,411.7-79.5S87.1,88.4,90.1,90.6c2.2,1.8,434.6-87.3,438.1-84.7c2.8,2-394.3,81.4-392.3,83
			c2.4,1.7,409.3-82.5,412.6-80c2.6,1.8-392.3,81.3-389.5,83.4c3.3,2.6,430.9-85.5,433.3-83.8c4.1,2.9-383.2,77.9-380.4,80.1
			c3.1,2.3,400.8-81.4,404.8-78.3c2.8,2-371.4,76.6-368.8,78.4C251,91,654.4,7.2,657.5,9.5c2.6,1.8-385.6,79.4-383.2,81.1
			c2.2,1.8,415.9-84.1,419.6-81.1c1.8,1.5-369.2,77.4-367.1,78.8c2.8,2.2,413.1-82.8,415.9-80.5c4.1,3-400,82-397.1,84.1
			c3.3,2.5,440.9-88.4,444.2-86c3.1,2.4-407,83-403.3,85.7c4.1,3,436.6-88.5,440.9-85.2c3.3,2.5-383.6,80.6-381.5,82.2
			c2.2,1.7,400.8-80.1,403.7-78c3.3,2.6-369.9,77-367.9,78.6C484,91,896.2,6.6,898.8,8.4c2,1.5-388,78.4-384.7,81
			c4.1,3,405.2-82.2,409.4-79.1c3.7,2.8-370.8,76.3-368.2,78.2c3.1,2.3,402.6-81.7,406.5-78.7c2,1.5-364,76.2-362,77.7
			c2.6,1.8,371.9-74.6,374.7-72.5c2.2,1.7-347.5,71.7-345.1,73.2c2.8,2.2,352-70.4,354.6-68.5c2.6,1.8-316.9,67-314.5,68.6
			c3.3,2.5,286.8-57.9,289.3-55.9c2,1.4-265,56.6-263.1,57.7c2.4,1.9,267-53.9,269.2-52.2S741,88.2,742.3,89.4
			c2,1.4,233.4-46.5,234.8-45.3c1.5,1-194.7,42.8-192.7,44.2c1.5,1,182.7-36.3,183.7-35.6c1.5,1-149.8,36.3-148.7,37.1
			c1.5,1.1,139.3-28.1,140.6-27.2c1.1,0.8-98.9,26.5-97.7,27.3c0.6,0.5,115.5-23.5,116.6-22.6c0.9,0.5-70.2,19.7-69.5,20.2
			c0.9,0.6,46.6-9.7,47.5-9.2c0.6,0.3-38.2,13.8-38.1,14c0.4,0.3,54.9-11.1,55.4-10.7c0.4,0.1-16.8,11.3-16.8,11.4
			c0,0,24.4-4.8,24.8-4.7"/>
	</g>
</g>
</svg>
