<?xml version="1.0" encoding="utf-8"?>
<!-- Generator: Adobe Illustrator 22.0.0, SVG Export Plug-In . SVG Version: 6.00 Build 0)  -->
<svg version="1.1" id="Camada_1" xmlns="http://www.w3.org/2000/svg" xmlns:xlink="http://www.w3.org/1999/xlink" x="0px" y="0px"
	 viewBox="0 0 989.7 215.3" style="enable-background:new 0 0 989.7 215.3;" xml:space="preserve">
<style type="text/css">
	.st0{fill:none;stroke:#7ED63E;stroke-width:6;stroke-linecap:round;stroke-linejoin:round;}
</style>
<g>
	<g>
		<path class="st0" d="M2.5,11.2l26.4-5.7C29.3,5.6,13.6,17,14,17.1c0.4,0.2,26.4-5.8,26.6-5.7c0.4,0.3-27,12.5-27,12.6
			c0.9,0.7,73-15.8,73.3-15.4C87.5,9,8,33.1,8.6,33.5c1.1,1,125.1-27.2,125.6-26.6C135.7,8,9.9,40,11.2,40.8
			c1.3,1.2,145.2-31.9,146.3-31c0.6,0.5-130.3,35.3-129,36.3C30,47.2,205.9,6.9,207.8,8.2c0.9,1-189,47.6-187.9,48.5
			c1.7,1.3,211.7-47.2,214-45.3c1.8,1.3-212,50.8-210.9,51.9c2.6,2,251.5-56.1,254.1-53.8C279.3,11.3,18.2,70,19.9,71.4
			C22.7,73.6,312.4,6.9,314.8,9c2,1.6-289.5,68.6-287.9,70c2.8,2.2,323-71.4,325.9-69c2.6,2.1-341.5,77.9-339.4,79.5
			c3.1,2.5,388.9-85.1,391.5-83C407.1,8.5,5.5,96.9,8,98.8C10.4,101,437.8,3.5,442,6.9c4.1,3.3-394.1,88.8-391.5,91
			c2.6,2,409.1-89.2,411.7-87S87.1,96.3,90.1,98.7c2.2,2,434.6-95.6,438.1-92.7c2.8,2.2-394.3,89.1-392.3,90.9
			c2.4,1.9,409.3-90.3,412.6-87.6c2.6,2-392.3,89-389.5,91.3c3.3,2.8,430.9-93.6,433.3-91.7c4.1,3.2-383.2,85.3-380.4,87.7
			C215,99,612.7,7.4,616.7,10.8c2.8,2.2-371.4,83.9-368.8,85.8C251,99.1,654.4,7.4,657.5,9.9c2.6,2-385.6,86.9-383.2,88.8
			c2.2,2,415.9-92.1,419.6-88.8c1.8,1.6-369.2,84.7-367.1,86.3C329.6,98.6,739.9,5.5,742.7,8c4.1,3.3-400,89.8-397.1,92.1
			c3.3,2.7,440.9-96.8,444.2-94.2c3.1,2.6-407,90.9-403.3,93.8c4.1,3.3,436.6-96.9,440.9-93.3c3.3,2.7-383.6,88.2-381.5,90
			c2.2,1.9,400.8-87.7,403.7-85.4c3.3,2.8-369.9,84.3-367.9,86.1c2.3,2,414.5-90.4,417.1-88.5c2,1.6-388,85.8-384.7,88.7
			c4.1,3.3,405.2-90,409.4-86.6c3.7,3.1-370.8,83.5-368.2,85.6c3.1,2.5,402.6-89.4,406.5-86.2c2,1.6-364,83.4-362,85.1
			c2.6,2,371.9-81.7,374.7-79.4c2.2,2-347.5,78.6-345.1,80.2c2.8,2.4,352-77.1,354.6-75c2.6,2-316.9,73.4-314.5,75.1
			c3.3,2.7,286.8-63.4,289.3-61.2c2,1.5-265,62-263.1,63.2c2.4,2.1,267-59,269.2-57.1S741,96,742.3,97.4
			c2,1.5,233.4-50.9,234.8-49.6c1.5,1.1-194.7,46.9-192.7,48.4c1.5,1.1,182.7-39.7,183.7-39c1.5,1.1-149.8,39.7-148.7,40.6
			C820.9,99,958.7,67,960,68c1.1,0.9-98.9,29-97.7,29.9c0.6,0.5,115.5-25.7,116.6-24.7c0.9,0.5-70.2,21.6-69.5,22.1
			c0.9,0.7,46.6-10.6,47.5-10.1c0.6,0.3-38.2,15.1-38.1,15.3c0.4,0.3,54.9-12.2,55.4-11.7c0.4,0.1-16.8,12.4-16.8,12.5
			c0,0,24.4-5.3,24.8-5.1"/>
	</g>
</g>
</svg>
