<?xml version="1.0" encoding="utf-8"?>
<!-- Generator: Adobe Illustrator 22.0.0, SVG Export Plug-In . SVG Version: 6.00 Build 0)  -->
<svg version="1.1" id="Capa_1" xmlns="http://www.w3.org/2000/svg" xmlns:xlink="http://www.w3.org/1999/xlink" x="0px" y="0px"
	 viewBox="0 0 512 512" style="enable-background:new 0 0 512 512;" xml:space="preserve">
<style type="text/css">
	.st0{fill:#FFFFFF;}
</style>
<g>
	<g>
		<g>
			<path class="st0" d="M469,498.8l-21.3-85.3c-1.2-4.8-5.4-8.1-10.3-8.1h-10.7v-130c12.4-4.4,21.3-16.1,21.3-30v-64
				c0-17.6-14.4-32-32-32h-32V128C384,57.4,326.6,0,256,0S128,57.4,128,128v21.3H96c-17.6,0-32,14.4-32,32v64
				c0,13.9,8.9,25.6,21.3,30v130H74.7c-4.9,0-9.2,3.3-10.3,8.1L43,498.8c-0.8,3.2-0.1,6.6,1.9,9.1c2,2.6,5.1,4.1,8.4,4.1h85.3
				c5.9,0,10.7-4.8,10.7-10.7V368c3.7,1.3,8,2.7,13,4.1l12.4,36.7c0.9,2.7,2.9,5,5.5,6.2c0.5,0.2,7.4,3.4,20.9,6.4l-9,57
				c-0.5,3.1,0.4,6.2,2.4,8.6c2,2.4,5,3.7,8.1,3.7h106.7c3.1,0,6.1-1.4,8.1-3.7c2-2.4,2.9-5.5,2.4-8.6l-9-57
				c13.5-3,20.4-6.1,20.9-6.4c2.6-1.2,4.6-3.5,5.5-6.2l12.4-36.6c5-1.4,9.3-2.8,13-4.1v133.4c0,5.9,4.8,10.7,10.7,10.7h85.3
				c3.3,0,6.4-1.5,8.4-4.1C469.1,505.3,469.8,501.9,469,498.8z M128,490.7h-21.3V480c0-5.9-4.8-10.7-10.7-10.7s-10.7,4.8-10.7,10.7
				v10.7H67l16-64h13h32V490.7z M128,352v53.3h-21.3v-128H128V352z M128,256H96c-5.9,0-10.7-4.8-10.7-10.7v-64
				c0-5.9,4.8-10.7,10.7-10.7h32V256z M266.7,469.3v-10.7c0-5.9-4.8-10.7-10.7-10.7s-10.7,4.8-10.7,10.7v10.7h-30.2l7.1-44.5
				c9.6,1.1,20.8,1.9,33.8,1.9s24.2-0.8,33.8-1.9l7.1,44.5H266.7z M318.6,397.2c-8.1,2.7-28.5,8.2-62.6,8.2
				c-34.1,0-54.6-5.5-62.6-8.2l-6.6-19.4c18.4,3.5,41.2,6.2,69.2,6.2c27.9,0,50.8-2.7,69.2-6.2L318.6,397.2z M362.7,345.1
				c-13,5.4-48.8,17.5-106.7,17.5s-93.6-12.1-106.7-17.5V176c18.7,6.7,54,16,106.7,16s88-9.3,106.7-16V345.1z M214.4,168.3l8.6-82.9
				H289l8.6,82.9c-12.4,1.4-26,2.4-41.6,2.4S226.8,169.7,214.4,168.3z M362.7,153.1c-7.2,3-21.9,8.1-43.9,12.1l-9.5-91.7
				c-0.6-5.4-5.1-9.6-10.6-9.6h-85.3c-5.5,0-10.1,4.1-10.6,9.6l-9.5,91.7c-22-4-36.7-9.1-43.9-12.1V128
				c0-58.8,47.9-106.7,106.7-106.7S362.7,69.2,362.7,128V153.1z M384,170.7h32c5.9,0,10.7,4.8,10.7,10.7v64
				c0,5.9-4.8,10.7-10.7,10.7h-32V170.7z M384,352v-74.7h21.3v128H384V352z M426.7,490.7V480c0-5.9-4.8-10.7-10.7-10.7
				s-10.7,4.8-10.7,10.7v10.7H384v-64h32h13l16,64H426.7z"/>
			<circle class="st0" cx="256" cy="128" r="21.3"/>
			<path class="st0" d="M192,245.3c0,5.9,4.8,10.7,10.7,10.7h106.7c5.9,0,10.7-4.8,10.7-10.7s-4.8-10.7-10.7-10.7H202.7
				C196.8,234.7,192,239.4,192,245.3z"/>
			<path class="st0" d="M309.3,298.7H202.7c-5.9,0-10.7,4.8-10.7,10.7s4.8,10.7,10.7,10.7h106.7c5.9,0,10.7-4.8,10.7-10.7
				C320,303.4,315.2,298.7,309.3,298.7z"/>
			<circle class="st0" cx="330.7" cy="138.7" r="10.7"/>
		</g>
	</g>
</g>
</svg>
