<?xml version="1.0" encoding="utf-8"?>
<!-- Generator: Adobe Illustrator 22.0.0, SVG Export Plug-In . SVG Version: 6.00 Build 0)  -->
<svg version="1.1" id="Camada_1" xmlns="http://www.w3.org/2000/svg" xmlns:xlink="http://www.w3.org/1999/xlink" x="0px" y="0px"
	 viewBox="0 0 490 490" style="enable-background:new 0 0 490 490;" xml:space="preserve">
<style type="text/css">
	.st0{fill:#F90606;}
	.st1{fill:#939598;}
	.st2{fill:#414042;}
	.st3{fill:#D1D3D4;}
	.st4{fill:#231F20;}
	.st5{fill:#F90606;stroke:#F90606;stroke-width:6;stroke-miterlimit:10;}
</style>
<g>
	<path class="st0" d="M42,377.8c-5.7,0-10.5,4.7-10.5,10.5v10.5c0,5.8,4.7,10.5,10.5,10.5h167.6v-31.4L42,377.8z"/>
	<path class="st1" d="M209.6,367.4v10.5v31.4v10.5h62.9v-52.3h-62.9V367.4z M267.3,383.1h-36.7H267.3z M230.6,404h36.7H230.6z"/>
	<path class="st2" d="M293.4,356.9v10.5v52.3v10.5l21,5.2v-83.8L293.4,356.9z"/>
	<path class="st3" d="M361.6,451.2V336h-47.1v15.7v83.7v15.7L361.6,451.2L361.6,451.2z M330.1,351.7h15.7v83.8h-15.7V351.7z"/>
	<path class="st3" d="M314.4,351.7v83.8V351.7z"/>
	<path class="st1" d="M382.4,409.3v-31.4h62.8v31.4H382.4z"/>
	<g>
		<path class="st3" d="M330.1,435.5v-83.8h15.7v83.8H330.1z"/>
		<path class="st3" d="M272.5,419.7v-52.3h20.9v52.3H272.5z"/>
		<path class="st3" d="M293.4,367.4v52.3V367.4z"/>
	</g>
	<path class="st2" d="M382.5,377.8v-10.5h-20.9v52.4h20.9v-10.5V377.8z"/>
	<path class="st3" d="M382.4,409.3v-31.4V409.3z"/>
	<path class="st4" d="M445.3,372.6h-57.6v-5.2c0-2.9-2.4-5.2-5.2-5.2h-15.7V336c0-2.9-2.4-5.2-5.2-5.2h-47.1c-2.9,0-5.2,2.4-5.2,5.2
		v11.6l-17,4.3c-2.3,0.6-4,2.7-4,5.1v5.3h-15.7h-62.9c-1.4,0-2.7,0.6-3.7,1.6s-1.6,2.3-1.6,3.7v5.3L42,372.6
		c-8.6,0.2-15.5,7.1-15.7,15.7v10.5c0,8.7,7,15.7,15.7,15.7h162.4v5.3c0,1.4,0.6,2.7,1.6,3.7s2.3,1.6,3.7,1.6h62.9h15.7v5.3
		c0,2.4,1.6,4.5,4,5.1l17,4.2v11.6c0,2.9,2.4,5.2,5.2,5.2h47.1c2.9,0,5.2-2.4,5.2-5.2V425h15.7c2.9,0,5.2-2.4,5.2-5.2v-5.3h57.6
		c2.9,0,5.2-2.4,5.2-5.2v-31.4c0-1.4-0.5-2.7-1.5-3.8C448,373.1,446.7,372.6,445.3,372.6z M298.7,361l10.5-2.6v70.4l-10.5-2.6V361z
		 M42,404c-1.4,0-2.7-0.6-3.7-1.6s-1.6-2.3-1.6-3.7v-10.5c0-2.9,2.4-5.2,5.2-5.2h162.4v21L42,404L42,404z M214.9,372.6h52.4v5.3
		h-36.7c-2.9,0-5.2,2.4-5.2,5.2c0,2.9,2.4,5.2,5.2,5.2h36.7v10.5h-36.7c-2.9,0-5.2,2.4-5.2,5.2s2.4,5.2,5.2,5.2h36.7v5.3h-52.4
		V372.6z M288.2,414.5h-10.5v-41.9h10.5V414.5z M356.3,445.9h-36.7v-10.5v-83.8v-10.5h36.7V445.9z M366.7,414.5v-41.9h10.5v41.9
		H366.7z M440.1,404h-52.4v-20.9H440L440.1,404z"/>
	<path class="st4" d="M351,351.7c0-2.9-2.4-5.2-5.2-5.2h-15.7c-2.9,0-5.2,2.4-5.2,5.2v83.8c0,2.9,2.4,5.2,5.2,5.2h15.7
		c2.9,0,5.2-2.4,5.2-5.2V351.7z M335.3,430.2v-73.4h5.3v73.4H335.3z"/>
</g>
<path class="st5" d="M372.7,248.5l-71.2-47.7c11.1-21,14.3-45.2,9.3-68.4c-11.9-54.3-65.8-88.9-120.1-77s-88.9,65.8-77,120.1
	s65.8,88.9,120.1,77c20.4-4.4,38.5-14.9,52.6-30.2l71.8,48c3,2,6.6,2.7,10.1,1.9c3.3-0.7,6.3-2.7,8.1-5.5
	C380.4,260.8,378.7,252.6,372.7,248.5z M196.3,81.2c40.1-8.8,80,16.7,88.8,56.8c8.8,40.1-16.7,80-56.8,88.8
	c-40.1,8.8-80-16.7-88.8-56.8C130.6,129.8,156.1,90,196.3,81.2z"/>
</svg>
