<?xml version="1.0" encoding="utf-8"?>
<!-- Generator: Adobe Illustrator 22.0.0, SVG Export Plug-In . SVG Version: 6.00 Build 0)  -->
<svg version="1.1" id="Camada_1" xmlns="http://www.w3.org/2000/svg" xmlns:xlink="http://www.w3.org/1999/xlink" x="0px" y="0px"
	 viewBox="0 0 490 490" style="enable-background:new 0 0 490 490;" xml:space="preserve">
<style type="text/css">
	.st0{fill:#7ED63E;}
	.st1{fill:#939598;}
	.st2{fill:#414042;}
	.st3{fill:#D1D3D4;}
	.st4{fill:#231F20;}
	.st5{fill:#F90606;}
</style>
<path class="st0" d="M46.6,12.6c-6.2-6.2-16.4-6.2-22.6,0L12.7,24c-6.3,6.2-6.3,16.4,0,22.6l180.9,180.9l33.9-33.9L46.6,12.6z"/>
<path class="st1" d="M238.9,182.3l-11.3,11.3l-33.9,33.9l-11.3,11.3l67.9,67.9l56.5-56.5L238.9,182.3z M284.1,261.5l-39.6-39.6
	L284.1,261.5z M221.9,244.5l39.6,39.6L221.9,244.5z"/>
<path class="st2" d="M340.6,261.5l-11.3,11.3l-56.5,56.5l-11.3,11.3l17,28.3l90.5-90.5L340.6,261.5z"/>
<path class="st3" d="M312.4,436.8l124.4-124.4l-50.9-50.9l-17,17l-90.4,90.4l-17,17L312.4,436.8z M385.9,295.4l17,17l-90.5,90.4
	l-17-17L385.9,295.4z"/>
<path class="st3" d="M368.9,278.4l-90.5,90.5L368.9,278.4z"/>
<path class="st1" d="M380.2,414.1l33.9-33.9L482,448L448.1,482L380.2,414.1z"/>
<g>
	<path class="st3" d="M295.4,385.9l90.5-90.5l17,17l-90.5,90.5L295.4,385.9z"/>
	<path class="st3" d="M250.2,306.7l56.5-56.5l22.6,22.6l-56.5,56.5L250.2,306.7z"/>
	<path class="st3" d="M329.3,272.8l-56.5,56.5L329.3,272.8z"/>
</g>
<path class="st2" d="M414.2,380.2l11.3-11.3l-22.6-22.6l-56.6,56.6l22.6,22.6l11.3-11.3L414.2,380.2z"/>
<path class="st3" d="M380.2,414.1l33.9-33.9L380.2,414.1z"/>
<path class="st4" d="M487.7,442.4l-62.2-62.2l5.6-5.7c3.1-3.1,3.1-8.2,0-11.3l-17-17l28.2-28.3c3.1-3.1,3.1-8.2,0-11.3l-50.9-50.9
	c-3.1-3.1-8.2-3.1-11.3,0l-12.5,12.5l-22.9-13.7c-3.1-1.9-7.2-1.4-9.8,1.2l-5.7,5.7l-17-17l-67.9-67.9c-1.5-1.5-3.5-2.3-5.7-2.3
	c-2.1,0-4.2,0.8-5.7,2.3l-5.7,5.7L52.3,7c-9.5-9.1-24.4-9.1-33.9,0L7,18.3c-9.4,9.4-9.4,24.6,0,33.9l175.3,175.3l-5.7,5.7
	c-1.5,1.5-2.3,3.5-2.3,5.7s0.8,4.2,2.3,5.7l67.9,67.9l17,17l-5.7,5.7c-2.6,2.6-3.1,6.6-1.2,9.8l13.8,22.9l-12.5,12.5
	c-3.1,3.1-3.1,8.2,0,11.3l50.9,50.9c3.1,3.1,8.2,3.1,11.3,0l28.3-28.3l16.9,17c3.1,3.1,8.2,3.1,11.3,0l5.7-5.7l62.2,62.2
	c3.1,3.1,8.2,3.1,11.3,0l33.9-33.9c1.5-1.5,2.4-3.5,2.4-5.7C490,445.9,489.2,443.9,487.7,442.4z M341.9,271.5L356,280l-76,76
	l-8.5-14.1L341.9,271.5z M18.3,40.9c-1.5-1.5-2.3-3.5-2.3-5.7c0-2.1,0.8-4.2,2.3-5.7l11.3-11.3c3.1-3.1,8.2-3.1,11.3,0l175.3,175.3
	l-22.6,22.6L18.3,40.9z M238.9,193.6l56.6,56.6l-5.7,5.7l-39.6-39.6c-3.1-3.1-8.2-3.1-11.3,0c-3.1,3.1-3.1,8.2,0,11.3l39.6,39.6
	l-11.3,11.3l-39.6-39.6c-3.1-3.1-8.2-3.1-11.3,0c-3.1,3.1-3.1,8.2,0,11.3l39.6,39.6l-5.7,5.7l-56.6-56.6L238.9,193.6z M272.8,318
	l-11.3-11.3l45.2-45.2l11.3,11.3L272.8,318z M312.4,425.4l-39.6-39.6l11.3-11.3l90.5-90.5l11.3-11.3l39.6,39.6L312.4,425.4z
	 M357.6,402.8l45.2-45.2l11.3,11.3l-45.2,45.2L357.6,402.8z M448.1,470.7l-56.6-56.5l22.6-22.6l56.5,56.5L448.1,470.7z"/>
<path class="st4" d="M408.5,318c3.1-3.1,3.1-8.2,0-11.3l-17-17c-3.1-3.1-8.2-3.1-11.3,0l-90.5,90.5c-3.1,3.1-3.1,8.2,0,11.3l17,17
	c3.1,3.1,8.2,3.1,11.3,0L408.5,318z M306.7,385.8l79.2-79.2l5.7,5.7l-79.2,79.2L306.7,385.8z"/>
<path class="st5" d="M474.1,46.7c6.2-6.2,6.2-16.4,0-22.6l-11.3-11.3c-6.2-6.3-16.4-6.3-22.6,0L259.3,193.7l33.9,33.9L474.1,46.7z"
	/>
<path class="st1" d="M304.5,238.9l-11.3-11.3l-33.9-33.9l-11.3-11.3l-67.9,67.9l56.5,56.5L304.5,238.9z M225.3,284.2l39.6-39.6
	L225.3,284.2z M242.3,222l-39.6,39.6L242.3,222z"/>
<path class="st2" d="M225.3,340.7L214,329.4l-56.5-56.5l-11.3-11.3l-28.3,17l90.5,90.5L225.3,340.7z"/>
<path class="st3" d="M50,312.5l124.4,124.4l50.9-50.9l-17-17l-90.4-90.4l-17-17L50,312.5z M191.4,386l-17,17L84,312.5l17-17
	L191.4,386z"/>
<path class="st3" d="M208.4,369l-90.5-90.5L208.4,369z"/>
<path class="st1" d="M73.7,380.3l33.9,33.9l-67.9,67.9L5.8,448.2L73.7,380.3z"/>
<g>
	<path class="st3" d="M100.9,295.5l90.5,90.5l-17,17L84,312.5L100.9,295.5z"/>
	<path class="st3" d="M180.1,250.3l56.5,56.5L214,329.4l-56.5-56.5L180.1,250.3z"/>
	<path class="st3" d="M214,329.4l-56.5-56.5L214,329.4z"/>
</g>
<path class="st2" d="M107.6,414.2l11.3,11.3l22.6-22.6L85,346.4L62.3,369l11.3,11.3L107.6,414.2z"/>
<path class="st3" d="M73.7,380.3l33.9,33.9L73.7,380.3z"/>
<path class="st4" d="M46.4,487.7l62.2-62.2l5.7,5.6c3.1,3.1,8.2,3.1,11.3,0l17-17l28.3,28.2c3.1,3.1,8.2,3.1,11.3,0l50.9-50.9
	c3.1-3.1,3.1-8.2,0-11.3l-12.5-12.5l13.7-22.9c1.9-3.1,1.4-7.2-1.2-9.8l-5.7-5.7l17-17l67.9-67.9c1.5-1.5,2.3-3.5,2.3-5.7
	c0-2.1-0.8-4.2-2.3-5.7l-5.7-5.7L481.8,52.3c9.1-9.5,9.1-24.4,0-33.9L470.5,7.1c-9.4-9.4-24.6-9.4-33.9,0L261.3,182.4l-5.7-5.7
	c-1.5-1.5-3.5-2.3-5.7-2.3s-4.2,0.8-5.7,2.3l-67.9,67.9l-17,17l-5.7-5.7c-2.6-2.6-6.6-3.1-9.8-1.2l-22.9,13.8l-12.5-12.5
	c-3.1-3.1-8.2-3.1-11.3,0l-50.9,50.9c-3.1,3.1-3.1,8.2,0,11.3l28.3,28.3l-17,16.9c-3.1,3.1-3.1,8.2,0,11.3l5.7,5.7L1.2,442.5
	c-3.1,3.1-3.1,8.2,0,11.3l33.9,33.9c1.5,1.5,3.5,2.4,5.7,2.4C42.9,490.1,44.9,489.2,46.4,487.7z M217.3,342l-8.5,14.2l-76-76
	l14.1-8.5L217.3,342z M447.8,18.4c1.5-1.5,3.5-2.3,5.7-2.3c2.1,0,4.2,0.8,5.7,2.3l11.3,11.3c3.1,3.1,3.1,8.2,0,11.3L295.2,216.3
	l-22.6-22.6L447.8,18.4z M295.2,238.9l-56.6,56.6l-5.7-5.7l39.6-39.6c3.1-3.1,3.1-8.2,0-11.3c-3.1-3.1-8.2-3.1-11.3,0l-39.6,39.6
	l-11.3-11.3l39.6-39.6c3.1-3.1,3.1-8.2,0-11.3c-3.1-3.1-8.2-3.1-11.3,0L199,255.9l-5.7-5.7l56.6-56.6L295.2,238.9z M170.8,272.9
	l11.3-11.3l45.2,45.2L216,318.1L170.8,272.9z M63.3,312.5l39.6-39.6l11.3,11.3l90.5,90.5L216,386l-39.6,39.6L63.3,312.5z M86,357.7
	l45.2,45.2l-11.3,11.3L74.7,369L86,357.7z M18.1,448.2l56.5-56.6l22.6,22.6l-56.5,56.5L18.1,448.2z"/>
<path class="st4" d="M168.8,408.6c3.1,3.1,8.2,3.1,11.3,0l17-17c3.1-3.1,3.1-8.2,0-11.3l-90.5-90.5c-3.1-3.1-8.2-3.1-11.3,0l-17,17
	c-3.1,3.1-3.1,8.2,0,11.3L168.8,408.6z M100.9,306.8l79.2,79.2l-5.7,5.7l-79.2-79.2L100.9,306.8z"/>
</svg>
